<svg width="1200" height="800" viewBox="0 0 1200 800" xmlns="http://www.w3.org/2000/svg">
  <rect width="1200" height="800" fill="#f8f7f4" />
  <rect x="60" y="40" width="1080" height="720" rx="24" fill="#ffffff" stroke="#e6e2dc" />

  <text x="96" y="95" font-family="Arial, sans-serif" font-size="26" fill="#191919">Cliente</text>
  <text x="96" y="125" font-family="Arial, sans-serif" font-size="14" fill="#8a857f">Resumo + detalhes</text>

  <!-- resumo cards -->
  <rect x="96" y="160" width="240" height="70" rx="12" fill="#faf9f7" stroke="#e6e2dc" />
  <rect x="360" y="160" width="240" height="70" rx="12" fill="#faf9f7" stroke="#e6e2dc" />
  <rect x="624" y="160" width="240" height="70" rx="12" fill="#faf9f7" stroke="#e6e2dc" />
  <rect x="888" y="160" width="216" height="70" rx="12" fill="#faf9f7" stroke="#e6e2dc" />

  <text x="116" y="188" font-size="11" fill="#a09a94" font-family="Arial, sans-serif">Telefone</text>
  <text x="116" y="210" font-size="14" fill="#191919" font-family="Arial, sans-serif">(77) 99906‑9515</text>
  <text x="380" y="188" font-size="11" fill="#a09a94" font-family="Arial, sans-serif">CPF</text>
  <text x="380" y="210" font-size="14" fill="#191919" font-family="Arial, sans-serif">101.221.378‑17</text>
  <text x="644" y="188" font-size="11" fill="#a09a94" font-family="Arial, sans-serif">E‑mail</text>
  <text x="644" y="210" font-size="14" fill="#191919" font-family="Arial, sans-serif">sem endereço…</text>
  <text x="908" y="188" font-size="11" fill="#a09a94" font-family="Arial, sans-serif">Status</text>
  <text x="908" y="210" font-size="14" fill="#191919" font-family="Arial, sans-serif">Lead</text>

  <!-- detalhes em lista simples -->
  <text x="96" y="280" font-size="12" fill="#a09a94" font-family="Arial, sans-serif">Detalhes</text>
  <line x1="96" y1="290" x2="1104" y2="290" stroke="#efeae3" />

  <text x="96" y="325" font-size="11" fill="#a09a94" font-family="Arial, sans-serif">Data de chegada</text>
  <text x="320" y="325" font-size="14" fill="#191919" font-family="Arial, sans-serif">04/11/2025</text>

  <text x="96" y="355" font-size="11" fill="#a09a94" font-family="Arial, sans-serif">Nacionalidade</text>
  <text x="320" y="355" font-size="14" fill="#191919" font-family="Arial, sans-serif">brasileiro</text>

  <text x="96" y="385" font-size="11" fill="#a09a94" font-family="Arial, sans-serif">Estado civil</text>
  <text x="320" y="385" font-size="14" fill="#191919" font-family="Arial, sans-serif">união estável</text>

  <text x="96" y="415" font-size="11" fill="#a09a94" font-family="Arial, sans-serif">Profissão</text>
  <text x="320" y="415" font-size="14" fill="#191919" font-family="Arial, sans-serif">lavrador</text>

  <text x="96" y="445" font-size="11" fill="#a09a94" font-family="Arial, sans-serif">Qualificação</text>
  <text x="320" y="445" font-size="14" fill="#191919" font-family="Arial, sans-serif">Abmael Libarino…</text>

  <text x="96" y="475" font-size="11" fill="#a09a94" font-family="Arial, sans-serif">Processo(s)</text>
  <text x="320" y="475" font-size="14" fill="#191919" font-family="Arial, sans-serif">2021‑0001, 2022‑0034</text>
</svg>
