<svg width="1200" height="800" viewBox="0 0 1200 800" xmlns="http://www.w3.org/2000/svg">
  <rect width="1200" height="800" fill="#f8f7f4" />
  <rect x="60" y="40" width="1080" height="720" rx="24" fill="#ffffff" stroke="#e6e2dc" />

  <text x="96" y="95" font-family="Arial, sans-serif" font-size="26" fill="#191919">Resumo</text>
  <text x="96" y="124" font-family="Arial, sans-serif" font-size="14" fill="#8a857f">Cards com icones + listas enxutas</text>

  <!-- top cards with icon badges -->
  <rect x="96" y="160" width="300" height="110" rx="16" fill="#faf9f7" stroke="#e6e2dc" />
  <rect x="420" y="160" width="300" height="110" rx="16" fill="#faf9f7" stroke="#e6e2dc" />
  <rect x="744" y="160" width="300" height="110" rx="16" fill="#faf9f7" stroke="#e6e2dc" />

  <circle cx="128" cy="196" r="16" fill="#e9e5df" />
  <text x="156" y="190" font-size="12" fill="#8a857f" font-family="Arial, sans-serif">Clientes</text>
  <text x="156" y="220" font-size="26" fill="#191919" font-family="Arial, sans-serif">852</text>

  <circle cx="452" cy="196" r="16" fill="#e9e5df" />
  <text x="480" y="190" font-size="12" fill="#8a857f" font-family="Arial, sans-serif">Processos</text>
  <text x="480" y="220" font-size="26" fill="#191919" font-family="Arial, sans-serif">935</text>

  <circle cx="776" cy="196" r="16" fill="#e9e5df" />
  <text x="804" y="190" font-size="12" fill="#8a857f" font-family="Arial, sans-serif">Atividades</text>
  <text x="804" y="220" font-size="26" fill="#191919" font-family="Arial, sans-serif">282</text>

  <!-- middle row: time + kpis -->
  <rect x="96" y="300" width="340" height="120" rx="16" fill="#ffffff" stroke="#e6e2dc" />
  <text x="116" y="335" font-size="12" fill="#8a857f" font-family="Arial, sans-serif">Agora</text>
  <text x="116" y="365" font-size="20" fill="#191919" font-family="Arial, sans-serif">Sabado, 7 de fevereiro</text>
  <text x="116" y="393" font-size="18" fill="#191919" font-family="Arial, sans-serif">09:42</text>

  <rect x="456" y="300" width="300" height="120" rx="16" fill="#ffffff" stroke="#e6e2dc" />
  <rect x="780" y="300" width="264" height="120" rx="16" fill="#ffffff" stroke="#e6e2dc" />
  <text x="476" y="335" font-size="12" fill="#8a857f" font-family="Arial, sans-serif">Atrasadas</text>
  <text x="476" y="368" font-size="26" fill="#191919" font-family="Arial, sans-serif">3</text>
  <text x="800" y="335" font-size="12" fill="#8a857f" font-family="Arial, sans-serif">Hoje</text>
  <text x="800" y="368" font-size="26" fill="#191919" font-family="Arial, sans-serif">14</text>

  <!-- bottom: two lists -->
  <rect x="96" y="440" width="520" height="300" rx="16" fill="#ffffff" stroke="#e6e2dc" />
  <rect x="640" y="440" width="456" height="300" rx="16" fill="#ffffff" stroke="#e6e2dc" />

  <text x="116" y="475" font-size="12" fill="#8a857f" font-family="Arial, sans-serif">Atividades de hoje</text>
  <rect x="116" y="500" width="480" height="64" rx="12" fill="#faf9f7" stroke="#eee9e2" />
  <rect x="116" y="575" width="480" height="64" rx="12" fill="#faf9f7" stroke="#eee9e2" />
  <rect x="116" y="650" width="480" height="64" rx="12" fill="#faf9f7" stroke="#eee9e2" />

  <text x="136" y="532" font-size="14" fill="#191919" font-family="Arial, sans-serif">Revisar documentos de Jorge</text>
  <text x="136" y="553" font-size="11" fill="#8a857f" font-family="Arial, sans-serif">14:00 • Processo 2023-001</text>
  <text x="136" y="607" font-size="14" fill="#191919" font-family="Arial, sans-serif">Enviar minuta para cliente</text>
  <text x="136" y="628" font-size="11" fill="#8a857f" font-family="Arial, sans-serif">16:30 • Processo 2022-014</text>
  <text x="136" y="682" font-size="14" fill="#191919" font-family="Arial, sans-serif">Checar audiencia marcada</text>
  <text x="136" y="703" font-size="11" fill="#8a857f" font-family="Arial, sans-serif">18:00 • Processo 2020-210</text>

  <text x="660" y="475" font-size="12" fill="#8a857f" font-family="Arial, sans-serif">Informacoes uteis</text>
  <rect x="660" y="500" width="416" height="56" rx="12" fill="#faf9f7" stroke="#eee9e2" />
  <rect x="660" y="566" width="416" height="56" rx="12" fill="#faf9f7" stroke="#eee9e2" />
  <rect x="660" y="632" width="416" height="56" rx="12" fill="#faf9f7" stroke="#eee9e2" />
  <text x="680" y="532" font-size="12" fill="#191919" font-family="Arial, sans-serif">5 processos sem atividade</text>
  <text x="680" y="598" font-size="12" fill="#191919" font-family="Arial, sans-serif">2 clientes sem documento</text>
  <text x="680" y="664" font-size="12" fill="#191919" font-family="Arial, sans-serif">1 processo sem prazo</text>
</svg>
