<svg width="1200" height="800" viewBox="0 0 1200 800" xmlns="http://www.w3.org/2000/svg">
  <rect width="1200" height="800" fill="#f8f7f4" />
  <rect x="60" y="40" width="1080" height="720" rx="24" fill="#ffffff" stroke="#e6e2dc" />
  <text x="96" y="100" font-family="Arial, sans-serif" font-size="26" fill="#191919">Visao minimal</text>
  <text x="96" y="130" font-family="Arial, sans-serif" font-size="14" fill="#8a857f">Dupla coluna: hoje + resumo.</text>

  <rect x="96" y="170" width="680" height="510" rx="16" fill="#ffffff" stroke="#e6e2dc" />
  <text x="116" y="205" font-size="12" fill="#8a857f" font-family="Arial, sans-serif">Atividades de hoje</text>

  <rect x="116" y="230" width="640" height="70" rx="12" fill="#faf9f7" stroke="#eee9e2" />
  <rect x="116" y="315" width="640" height="70" rx="12" fill="#faf9f7" stroke="#eee9e2" />
  <rect x="116" y="400" width="640" height="70" rx="12" fill="#faf9f7" stroke="#eee9e2" />
  <rect x="116" y="485" width="640" height="70" rx="12" fill="#faf9f7" stroke="#eee9e2" />

  <text x="136" y="260" font-size="14" fill="#191919" font-family="Arial, sans-serif">Revisar documentos de Jorge</text>
  <text x="136" y="282" font-size="11" fill="#8a857f" font-family="Arial, sans-serif">14:00 • Processo 2023-001</text>
  <text x="136" y="345" font-size="14" fill="#191919" font-family="Arial, sans-serif">Enviar minuta para cliente</text>
  <text x="136" y="367" font-size="11" fill="#8a857f" font-family="Arial, sans-serif">16:30 • Processo 2022-014</text>
  <text x="136" y="430" font-size="14" fill="#191919" font-family="Arial, sans-serif">Checar audiencia marcada</text>
  <text x="136" y="452" font-size="11" fill="#8a857f" font-family="Arial, sans-serif">18:00 • Processo 2020-210</text>
  <text x="136" y="515" font-size="14" fill="#191919" font-family="Arial, sans-serif">Organizar pastas digitais</text>
  <text x="136" y="537" font-size="11" fill="#8a857f" font-family="Arial, sans-serif">19:00 • Cliente Aline</text>

  <rect x="806" y="170" width="310" height="140" rx="16" fill="#faf9f7" stroke="#e6e2dc" />
  <text x="826" y="205" font-size="12" fill="#8a857f" font-family="Arial, sans-serif">Agora</text>
  <text x="826" y="240" font-size="20" fill="#191919" font-family="Arial, sans-serif">Sabado, 7 de fevereiro</text>
  <text x="826" y="270" font-size="18" fill="#191919" font-family="Arial, sans-serif">09:42</text>

  <rect x="806" y="330" width="310" height="110" rx="16" fill="#faf9f7" stroke="#e6e2dc" />
  <rect x="806" y="460" width="310" height="110" rx="16" fill="#faf9f7" stroke="#e6e2dc" />
  <rect x="806" y="590" width="310" height="90" rx="16" fill="#faf9f7" stroke="#e6e2dc" />

  <text x="826" y="365" font-size="12" fill="#8a857f" font-family="Arial, sans-serif">Clientes</text>
  <text x="826" y="395" font-size="26" fill="#191919" font-family="Arial, sans-serif">852</text>
  <text x="826" y="495" font-size="12" fill="#8a857f" font-family="Arial, sans-serif">Processos</text>
  <text x="826" y="525" font-size="26" fill="#191919" font-family="Arial, sans-serif">935</text>
  <text x="826" y="625" font-size="12" fill="#8a857f" font-family="Arial, sans-serif">Ativas hoje</text>
  <text x="826" y="653" font-size="26" fill="#191919" font-family="Arial, sans-serif">14</text>
</svg>
